<?xml version="1.0" encoding="UTF-8" standalone="no"?>
<!-- Created with Inkscape (http://www.inkscape.org/) -->
<svg
   xmlns:dc="http://purl.org/dc/elements/1.1/"
   xmlns:cc="http://creativecommons.org/ns#"
   xmlns:rdf="http://www.w3.org/1999/02/22-rdf-syntax-ns#"
   xmlns:svg="http://www.w3.org/2000/svg"
   xmlns="http://www.w3.org/2000/svg"
   xmlns:sodipodi="http://sodipodi.sourceforge.net/DTD/sodipodi-0.dtd"
   xmlns:inkscape="http://www.inkscape.org/namespaces/inkscape"
   width="24"
   height="24"
   id="svg2755"
   sodipodi:version="0.32"
   inkscape:version="0.46"
   viewBox="0 0 24 24"
   version="1.0"
   sodipodi:docname="U+2115.svg"
   inkscape:output_extension="org.inkscape.output.svg.inkscape">
  <defs
     id="defs2757">
    <inkscape:perspective
       sodipodi:type="inkscape:persp3d"
       inkscape:vp_x="0 : 526.18109 : 1"
       inkscape:vp_y="0 : 1000 : 0"
       inkscape:vp_z="744.09448 : 526.18109 : 1"
       inkscape:persp3d-origin="372.04724 : 350.78739 : 1"
       id="perspective2763" />
  </defs>
  <sodipodi:namedview
     id="base"
     pagecolor="#ffffff"
     bordercolor="#666666"
     borderopacity="1.0"
     gridtolerance="10000"
     guidetolerance="10"
     objecttolerance="10"
     inkscape:pageopacity="0.0"
     inkscape:pageshadow="2"
     inkscape:zoom="31.561058"
     inkscape:cx="7.8282209"
     inkscape:cy="11.386503"
     inkscape:document-units="px"
     inkscape:current-layer="layer1"
     showgrid="false"
     inkscape:window-width="1400"
     inkscape:window-height="1000"
     inkscape:window-x="-8"
     inkscape:window-y="-8" />
  <metadata
     id="metadata2760">
    <rdf:RDF>
      <cc:Work
         rdf:about="">
        <dc:format>image/svg+xml</dc:format>
        <dc:type
           rdf:resource="http://purl.org/dc/dcmitype/StillImage" />
      </cc:Work>
    </rdf:RDF>
  </metadata>
  <g
     inkscape:label="Layer 1"
     inkscape:groupmode="layer"
     id="layer1">
    <path
       style="font-size:30px;font-style:normal;font-variant:normal;font-weight:bold;font-stretch:normal;text-align:start;line-height:100%;writing-mode:lr-tb;text-anchor:start;fill:#000000;fill-opacity:1;stroke:none;stroke-width:1px;stroke-linecap:butt;stroke-linejoin:miter;stroke-opacity:1;font-family:Arial Narrow;-inkscape-font-specification:Arial Narrow Bold"
       d="M 22.522843,0.56345178 C 21.558356,0.56347184 20.875615,0.66245647 20.474621,0.86040607 C 20.073584,1.0583952 19.827393,1.3680396 19.736041,1.7893402 C 19.644652,2.2106784 19.598967,2.9340279 19.598985,3.9593909 L 19.598985,21 L 19.035533,21 L 5.497462,4.4010153 L 5.4365484,4.4010153 L 5.4365484,16.690355 C 5.4365433,17.715739 5.4822285,18.439089 5.5736042,18.860407 C 5.6649695,19.281727 5.911162,19.591372 6.3121829,19.78934 C 6.7131917,19.987311 7.3959323,20.086295 8.3604063,20.086295 L 8.3604063,20.649746 L 1.1573603,20.649746 L 1.1573603,20.086295 C 2.1319781,20.086295 2.8197946,19.987311 3.2208122,19.78934 C 3.6218243,19.591372 3.868017,19.281727 3.9593909,18.860407 C 4.0507578,18.439089 4.096443,17.715739 4.0964468,16.690355 L 4.0964468,2.7106598 C 3.4365453,1.8781914 2.8147184,1.3122021 2.2309645,1.0126904 C 1.6472069,0.71321787 0.9035528,0.56347184 0,0.56345178 L 0,-4.1490045e-16 L 5.6192895,-4.1490045e-16 L 18.182743,15.441624 L 18.258884,15.441624 L 18.258884,3.9593909 C 18.258866,2.9340279 18.21318,2.2106784 18.121829,1.7893402 C 18.03044,1.3680396 17.781709,1.0583952 17.375635,0.86040607 C 16.969528,0.66245647 16.284248,0.56347184 15.319797,0.56345178 L 15.319797,-4.1490045e-16 L 22.522843,-4.1490045e-16 L 22.522843,0.56345178 z M 18.258884,19.035533 L 18.258884,16.568529 L 5.2842641,0.62436544 L 2.7868021,0.62436544 C 3.3350226,0.90864915 3.8426361,1.3350447 4.3096447,1.9035533 L 18.258884,19.035533 z"
       id="text2765" />
  </g>
</svg>
