<?xml version="1.0" encoding="UTF-8"?>
<svg xmlns="http://www.w3.org/2000/svg" xmlns:xlink="http://www.w3.org/1999/xlink" width="24" height="24" viewBox="0 0 64 64" version="1.1">
    
    <title>Sunglass</title>
    <desc>Created with Sketch.</desc>
    <defs>
        <polygon id="path-1" points="0.0523428571 24.3034541 25.986819 24.3034541 25.986819 0.0175988081 0.0523428571 0.0175988081"/>
        <polygon id="path-3" points="0 0.627484806 0 2.90593363 4.99108571 2.90593363 4.99108571 0.627484806 3.09772049e-20 0.627484806"/>
        <polygon id="path-5" points="0.702019048 24.3034541 26.6364952 24.3034541 26.6364952 0.0174681076 0.702019048 0.0174681076 0.702019048 24.3034541"/>
        <polygon id="path-7" points="6.11733333 2.90593363 6.11733333 0.627484806 0.731657143 0.627484806 0.731657143 2.90593363 6.11733333 2.90593363"/>
    </defs>
    <g id="SVG" stroke="none" stroke-width="1" fill="none" fill-rule="evenodd">
        <g id="Color" transform="translate(-374.000000, -446.000000)">
            <g id="Sunglass" transform="translate(374.000000, 465.000000)">
                <path d="M47.5364571,3.04165323 L15.7231238,3.04165323 C15.0922667,3.04165323 14.5802667,2.53204018 14.5802667,1.90242882 C14.5802667,1.27281746 15.0922667,0.763204408 15.7231238,0.763204408 L47.5364571,0.763204408 C48.1673143,0.763204408 48.6793143,1.27281746 48.6793143,1.90242882 C48.6793143,2.53204018 48.1673143,3.04165323 47.5364571,3.04165323" id="Fill-1" fill="#2E2E30"/>
                <path d="M27.8916571,9.47265099 C27.8916571,17.4441839 19.8108952,23.9066243 12.7137524,23.9066243 C5.61737143,23.9066243 4.24289524,17.4441839 4.24289524,9.47265099 C4.24289524,1.50111803 9.9960381,1.90212503 17.093181,1.90212503 C24.1895619,1.90212503 27.8916571,1.50111803 27.8916571,9.47265099" id="Fill-3" fill="#3F3F3F"/>
                <g id="Group-7" transform="translate(3.047619, 0.742091)">
                    <mask id="mask-2" fill="white">
                        <use xlink:href="#path-1"/>
                    </mask>
                    <g id="Clip-6"/>
                    <path d="M12.1376762,2.29622072 C8.48662857,2.29622072 5.38567619,2.41242161 3.77653333,4.01189269 C2.80815238,4.97415758 2.33805714,6.5181864 2.33805714,8.7305602 C2.33805714,18.1732116 4.46148571,22.0253091 9.66681905,22.0253091 C16.0233905,22.0253091 23.7011048,16.0945068 23.7011048,8.7305602 C23.7011048,6.07464836 23.2843429,4.42353244 22.3898667,3.53417792 C21.1296762,2.28179055 18.5727238,2.29242331 15.0222476,2.29773969 L14.0454857,2.29925866 L13.0679619,2.29773969 C12.754819,2.29698021 12.4432,2.29622072 12.1376762,2.29622072 M9.66681905,24.3037579 C1.14491429,24.3037579 0.0523428571,15.9813438 0.0523428571,8.7305602 C0.0523428571,5.88173969 0.742628571,3.81062971 2.16205714,2.39875092 C4.57881905,-0.00273413859 8.51786667,0.00713913965 13.0740571,0.0192908667 L14.0454857,0.0208098326 L15.0153905,0.0192908667 C19.1152,0.00789862259 22.0713905,0.000303793177 24.0043429,1.92103615 C25.3750095,3.28430803 25.986819,5.38427836 25.986819,8.7305602 C25.986819,17.5010692 17.2134857,24.3037579 9.66681905,24.3037579" id="Fill-5" fill="#2E2E30" mask="url(#mask-2)"/>
                </g>
                <g id="Group-10" transform="translate(0.000000, 7.577437)">
                    <mask id="mask-4" fill="white">
                        <use xlink:href="#path-3"/>
                    </mask>
                    <g id="Clip-9"/>
                    <path d="M3.84822857,2.90593363 L1.14270476,2.90593363 C0.511847619,2.90593363 -0.000152380952,2.39632058 -0.000152380952,1.76670922 C-0.000152380952,1.13709786 0.511847619,0.627484806 1.14270476,0.627484806 L3.84822857,0.627484806 C4.47908571,0.627484806 4.99108571,1.13709786 4.99108571,1.76670922 C4.99108571,2.39632058 4.47908571,2.90593363 3.84822857,2.90593363" id="Fill-8" fill="#2E2E30" mask="url(#mask-4)"/>
                </g>
                <path d="M25.2102857,4.18634592 C23.6460952,2.62408951 20.8620952,2.75775851 16.9184762,2.75775851 C10.4918095,2.75775851 5.28190476,2.39472566 5.28190476,9.61361102 C5.28190476,13.3927981 5.63161905,16.7876869 6.87961905,19.1739823 C8.69066667,13.7330465 13.3451429,6.77694223 25.2102857,4.18634592" id="Fill-11" fill="#636363"/>
                <path d="M35.3684571,9.47265099 C35.3684571,17.4441839 43.449219,23.9066243 50.5463619,23.9066243 C57.6427429,23.9066243 59.017219,17.4441839 59.017219,9.47265099 C59.017219,1.50111803 53.2640762,1.90212503 46.1669333,1.90212503 C39.0705524,1.90212503 35.3684571,1.50111803 35.3684571,9.47265099" id="Fill-13" fill="#3F3F3F"/>
                <g id="Group-17" transform="translate(33.523810, 0.742091)">
                    <mask id="mask-6" fill="white">
                        <use xlink:href="#path-5"/>
                    </mask>
                    <g id="Clip-16"/>
                    <path d="M10.782019,2.29622072 C7.69325714,2.29622072 5.45173333,2.38811816 4.29820952,3.5349374 C3.40373333,4.42353244 2.98773333,6.07464836 2.98773333,8.7305602 C2.98773333,16.0945068 10.6654476,22.0253091 17.022019,22.0253091 C22.2273524,22.0253091 24.350781,18.1732116 24.350781,8.7305602 C24.350781,6.51742691 23.8799238,4.97415758 22.9123048,4.01189269 C21.1683048,2.27799313 17.6658286,2.28786641 13.6216381,2.29773969 L12.6433524,2.29925866 L11.6665905,2.29773969 C11.3648762,2.29698021 11.0692571,2.29622072 10.782019,2.29622072 M17.022019,24.3037579 C9.47459048,24.3037579 0.702019048,17.5010692 0.702019048,8.7305602 C0.702019048,5.38427836 1.31306667,3.28430803 2.68449524,1.92103615 C4.61668571,0.00106327612 7.57135238,0.00637965671 11.6734476,0.0192908667 L12.6433524,0.0208098326 L13.6155429,0.0192908667 C18.174019,0.00789862259 22.110019,-0.00273413859 24.526019,2.39875092 C25.9454476,3.80987023 26.6364952,5.88173969 26.6364952,8.7305602 C26.6364952,15.9813438 25.5431619,24.3037579 17.022019,24.3037579" id="Fill-15" fill="#2E2E30" mask="url(#mask-6)"/>
                </g>
                <g id="Group-20" transform="translate(57.142857, 7.577437)">
                    <mask id="mask-8" fill="white">
                        <use xlink:href="#path-7"/>
                    </mask>
                    <g id="Clip-19"/>
                    <path d="M4.97470476,2.90593363 L1.87451429,2.90593363 C1.24365714,2.90593363 0.731657143,2.39632058 0.731657143,1.76670922 C0.731657143,1.13709786 1.24365714,0.627484806 1.87451429,0.627484806 L4.97470476,0.627484806 C5.6055619,0.627484806 6.1175619,1.13709786 6.1175619,1.76670922 C6.1175619,2.39632058 5.6055619,2.90593363 4.97470476,2.90593363" id="Fill-18" fill="#2E2E30" mask="url(#mask-8)"/>
                </g>
                <path d="M35.3690667,8.25238974 C35.046019,8.25238974 34.7252571,8.1164423 34.4997333,7.85442068 C34.4410667,7.79062412 33.6204952,6.95063598 31.6304,6.95063598 C29.6052571,6.95063598 28.790781,7.81948447 28.7572571,7.85669913 C28.3397333,8.31466734 27.6243048,8.36859063 27.1542095,7.96454571 C26.6848762,7.5597413 26.614781,6.86709286 27.0086857,6.38937809 C27.1534476,6.21393753 28.5149714,4.67218716 31.6304,4.67218716 C34.7450667,4.67218716 36.1065905,6.21393753 36.2505905,6.38937809 C36.6521143,6.87544717 36.582019,7.59315855 36.0944,7.99340606 C35.8818286,8.16732765 35.6243048,8.25238974 35.3690667,8.25238974" id="Fill-21" fill="#2E2E30"/>
                <path d="M55.3017905,4.06741089 C53.2431238,2.63578555 49.9090286,2.76110023 46.1429333,2.76110023 C39.889981,2.76110023 36.6282667,2.40794067 36.6282667,9.43163891 C36.6282667,11.6273041 37.3238857,13.6930977 38.4720762,15.4961102 C40.9238857,10.8883272 45.7657905,6.04510447 55.3017905,4.06741089" id="Fill-23" fill="#636363"/>
            </g>
        </g>
    </g>

	
	
	<metadata>
		<rdf:RDF xmlns:rdf="http://www.w3.org/1999/02/22-rdf-syntax-ns#" xmlns:rdfs="http://www.w3.org/2000/01/rdf-schema#" xmlns:dc="http://purl.org/dc/elements/1.1/">
			<rdf:Description about="https://iconscout.com/legal#licenses" dc:title="Sunglass, Black, Beach, Travel, Holiday" dc:description="Sunglass, Black, Beach, Travel, Holiday" dc:publisher="Iconscout" dc:date="2016-12-14" dc:format="image/svg+xml" dc:language="en">
				<dc:creator>
					<rdf:Bag>
						<rdf:li>AomAm .</rdf:li>
					</rdf:Bag>
				</dc:creator>
			</rdf:Description>
		</rdf:RDF>
    </metadata></svg>
