
<svg xmlns="http://www.w3.org/2000/svg" height="24" width="24" viewBox="0 0 100 100">
  <text x="20" y="20" style="font: 20px serif; fill: black;">R</text>
  <ellipse style="fill: rgba(0, 0, 0, 0); stroke: rgb(0, 0, 0); stroke-width: 4px;" cx="50" cy="50" rx="15" ry="40"/>
  <ellipse style="fill: rgba(0, 0, 0, 0); stroke: rgb(0, 0, 0); stroke-width: 4px;" cx="50" cy="50" rx="15" ry="40" transform="rotate(60, 50, 50)"/>
  <ellipse style="fill: rgba(0, 0, 0, 0); stroke: rgb(0, 0, 0); stroke-width: 4px;" cx="50" cy="50" rx="15" ry="40" transform="rotate(-60, 50, 50)"/>
  <circle fill="black" cx="60" cy="80" r="5"/>
  <circle fill="black" cx="18" cy="42" r="5"/>
  <circle fill="black" cx="74" cy="26" r="5"/>
  <path stroke="#ffffff" stroke-opacity="0" id="svg_1" d="m58.89387,49.44702l2.99893,-1.54098c-0.05895,-0.57095 -0.17289,-1.12481 -0.31542,-1.66928l-3.33138,-0.44819c-0.28834,-0.67484 -0.66911,-1.30073 -1.11669,-1.87527l1.26988,-3.03427c-0.41756,-0.39564 -0.86851,-0.75634 -1.34314,-1.08825l-2.82878,1.72533c-0.66335,-0.33891 -1.37805,-0.59632 -2.12831,-0.76165l-1.02228,-3.07689c-0.28993,-0.02127 -0.57977,-0.04374 -0.87544,-0.04374s-0.58469,0.02195 -0.87549,0.04374l-1.01215,3.04963c-0.77037,0.16002 -1.50085,0.42042 -2.18125,0.76352l-2.78472,-1.69995c-0.47403,0.3319 -0.92496,0.69261 -1.34248,1.08825l1.23493,2.95046c-0.48132,0.59932 -0.88429,1.26058 -1.18695,1.97326l-3.22622,0.43349c-0.14193,0.5437 -0.25646,1.09698 -0.31481,1.66921l2.89561,1.48842c0.03281,0.78351 0.16651,1.54286 0.40328,2.25793l-2.18429,2.34643c0.25409,0.51202 0.53698,1.00856 0.86424,1.47442l3.21588,-0.67074c0.52727,0.55737 1.128,1.04571 1.79078,1.44955l-0.12189,3.19668c0.52815,0.23143 1.07691,0.42511 1.64243,0.57993l2.0345,-2.54072c0.36098,0.04477 0.72653,0.07493 1.09937,0.07493c0.4039,0 0.7989,-0.03545 1.18754,-0.08733l2.04509,2.55482c0.5664,-0.15464 1.11433,-0.34831 1.64243,-0.57975l-0.12425,-3.25409c0.63172,-0.39734 1.20455,-0.8727 1.70956,-1.4094l3.29951,0.68783c0.32726,-0.46578 0.61019,-0.9618 0.86419,-1.47425l-2.25504,-2.42325c0.21662,-0.67731 0.33763,-1.39232 0.37286,-2.12985l0,0zm-4.98445,3.70158l-1.42185,0.89928l-0.87453,-1.30541c-0.45494,0.17001 -0.94474,0.27339 -1.46107,0.27339c-2.25503,0 -4.08252,-1.77618 -4.08252,-3.96669c0,-2.1906 1.82749,-3.9661 4.08252,-3.9661c2.25444,0 4.0826,1.77549 4.0826,3.9661c0,1.09466 -0.45644,2.08423 -1.19424,2.80221l0.86908,1.29723z" stroke-width="1.5" fill="#000000"/>
  
</svg>