<svg xmlns="http://www.w3.org/2000/svg" enable-background="new 0 0 24 24" height="24" viewBox="0 0 24 24" width="24">
 <g>
  <path fill="#000" stroke-width="1.5" d="m10.93617,11.90646l1.06383,-1.1792l1.06383,1.1792l-0.53191,0l0,1.18487l-1.06383,0l0,-1.18487l-0.53191,0l-0.00001,0z" transform="rotate(180 12,11.909294128417969) " stroke="#000"/>
  <rect fill="#0fffff" fill-opacity="0" x="0.47518" y="0.46964" width="23.04964" height="8.39243" stroke="#000"/>
  <rect fill="#0fffff" fill-opacity="0" x="0.47518" y="15.12685" width="23.04964" height="8.39243" stroke="#000"/>
  <line stroke="#000" x1="8" y1="0.82425" x2="8" y2="8.98028"/>
  <line stroke="#000" x1="16" y1="0.82425" x2="16" y2="8.98028"/>
  <line stroke="#000" x1="8" y1="15.10232" x2="8" y2="23.25835"/>
  <line stroke="#000" x1="16" y1="15.10232" x2="16" y2="23.25835"/>
  <ellipse ry="0.535834" rx="0.468855" cy="4.600648" cx="4.325039" stroke="#000" fill="#000000"/>
  <ellipse ry="0.535834" rx="0.468855" cy="2.439695" cx="9.913711" stroke="#000" fill="#000000"/>
  <ellipse ry="0.535834" rx="0.468855" cy="6.836117" cx="13.863039" stroke="#000" fill="#000000"/>
  <ellipse ry="0.535834" rx="0.468855" cy="4.600648" cx="19.97332" stroke="#000" fill="#000000"/>
  <ellipse ry="0.535834" rx="0.468855" cy="4.675163" cx="11.776602" stroke="#000" fill="#000000"/>
  <ellipse ry="0.535834" rx="0.468855" cy="18.311523" cx="6.262446" stroke="#000" fill="#000000"/>
  <ellipse ry="0.535834" rx="0.468855" cy="16.895726" cx="17.812368" stroke="#000" fill="#000000"/>
  <ellipse ry="0.535834" rx="0.468855" cy="19.652805" cx="10.882415" stroke="#000" fill="#000000"/>
  <ellipse ry="0.535834" rx="0.468855" cy="20.546992" cx="21.761696" stroke="#000" fill="#000000"/>
  <ellipse ry="0.535834" rx="0.468855" cy="21.664726" cx="3.430852" stroke="#000" fill="#000000"/>
  <ellipse ry="0.535834" rx="0.468855" cy="21.813758" cx="14.384649" stroke="#000" fill="#000000"/>
  <ellipse ry="0.535834" rx="0.468855" cy="19.280226" cx="13.639493" stroke="#000" fill="#000000"/>
  <line y2="2.570281" x2="9.652757" y1="4.656718" x1="4.213116" stroke-width="0.7" stroke="#000"/>
  <line y2="4.656718" x2="20.084944" y1="6.966703" x1="13.900147" stroke-width="0.7" stroke="#000"/>
  <line stroke="#000" y2="20.528547" x2="21.724288" y1="21.795312" x1="14.049179" stroke-width="0.7"/>
  <line stroke="#000" y2="16.951796" x2="17.849476" y1="18.293077" x1="6.597616" stroke-width="0.7"/>
  <line stroke="#000" y2="19.634359" x2="10.845007" y1="21.49725" x1="3.840538" stroke-width="0.7"/>
 </g>
</svg>